<?xml version="1.0" encoding="UTF-8" standalone="no"?>
<!DOCTYPE svg PUBLIC "-//W3C//DTD SVG 1.1//EN"
 "http://www.w3.org/Graphics/SVG/1.1/DTD/svg11.dtd">
<!-- Generated by graphviz version 12.2.1 (20241206.2353)
 -->
<!-- Title: vertical_pipeline_refined Pages: 1 -->
<svg width="865pt" height="861pt"
 viewBox="0.00 0.00 865.00 861.00" xmlns="http://www.w3.org/2000/svg" xmlns:xlink="http://www.w3.org/1999/xlink">
<g id="graph0" class="graph" transform="scale(1 1) rotate(0) translate(4 857)">
<title>vertical_pipeline_refined</title>
<g id="clust1" class="cluster">
<title>cluster_simon</title>
<path fill="none" stroke="black" stroke-width="2" d="M20,-543.3C20,-543.3 204,-543.3 204,-543.3 210,-543.3 216,-549.3 216,-555.3 216,-555.3 216,-833 216,-833 216,-839 210,-845 204,-845 204,-845 20,-845 20,-845 14,-845 8,-839 8,-833 8,-833 8,-555.3 8,-555.3 8,-549.3 14,-543.3 20,-543.3"/>
<text text-anchor="middle" x="112" y="-827.7" font-family="Times,serif" font-size="14.00">1. Simon Simulator</text>
</g>
<g id="clust2" class="cluster">
<title>cluster_nparc</title>
<path fill="#cce0ff" stroke="blue" stroke-width="2" d="M472,-223.65C472,-223.65 602,-223.65 602,-223.65 608,-223.65 614,-229.65 614,-235.65 614,-235.65 614,-832.25 614,-832.25 614,-838.25 608,-844.25 602,-844.25 602,-844.25 472,-844.25 472,-844.25 466,-844.25 460,-838.25 460,-832.25 460,-832.25 460,-235.65 460,-235.65 460,-229.65 466,-223.65 472,-223.65"/>
<text text-anchor="middle" x="537" y="-826.95" font-family="Times,serif" font-size="14.00">2. NPARC Python Tool</text>
</g>
<g id="clust3" class="cluster">
<title>cluster_csv_output</title>
<path fill="none" stroke="black" stroke-width="2" d="M695,-8C695,-8 837,-8 837,-8 843,-8 849,-14 849,-20 849,-20 849,-181.65 849,-181.65 849,-187.65 843,-193.65 837,-193.65 837,-193.65 695,-193.65 695,-193.65 689,-193.65 683,-187.65 683,-181.65 683,-181.65 683,-20 683,-20 683,-14 689,-8 695,-8"/>
<text text-anchor="middle" x="766" y="-176.35" font-family="Times,serif" font-size="14.00">3. CSV Output File</text>
</g>
<!-- topology_input -->
<g id="node1" class="node">
<title>topology_input</title>
<polygon fill="#e0e0e0" stroke="none" points="182.95,-812.5 89.05,-812.5 89.05,-771.1 182.95,-771.1 182.95,-812.5"/>
<text text-anchor="middle" x="136" y="-792.95" font-family="Helvetica,sans-Serif" font-size="13.00">Input:</text>
<text text-anchor="middle" x="136" y="-779.45" font-family="Helvetica,sans-Serif" font-size="13.00">Topology File</text>
</g>
<!-- simon_simulator -->
<g id="node2" class="node">
<title>simon_simulator</title>
<polygon fill="#f0f0f0" stroke="black" points="187.45,-701.85 84.55,-701.85 84.55,-661.95 187.45,-661.95 187.45,-701.85"/>
<text text-anchor="middle" x="136" y="-683.25" font-family="Helvetica,sans-Serif" font-size="12.00">Simon Simulator</text>
<text text-anchor="middle" x="136" y="-670.5" font-family="Helvetica,sans-Serif" font-size="12.00">(Black Box)</text>
</g>
<!-- topology_input&#45;&gt;simon_simulator -->
<g id="edge1" class="edge">
<title>topology_input&#45;&gt;simon_simulator</title>
<path fill="none" stroke="black" stroke-dasharray="5,2" d="M136,-771.26C136,-754.23 136,-729.34 136,-710.31"/>
<polygon fill="black" stroke="black" points="136,-703.51 139.15,-710.51 136,-705.79 136,-710.51 136,-710.51 136,-710.51 136,-705.79 132.85,-710.51 136,-703.51"/>
<text text-anchor="middle" x="167.5" y="-732.6" font-family="Helvetica,sans-Serif" font-size="10.00">Topology Data</text>
</g>
<!-- simon_output -->
<g id="node3" class="node">
<title>simon_output</title>
<polygon fill="#e0e0e0" stroke="none" points="207.7,-592.7 16.3,-592.7 16.3,-551.3 207.7,-551.3 207.7,-592.7"/>
<text text-anchor="middle" x="112" y="-573.15" font-family="Helvetica,sans-Serif" font-size="13.00">Output:</text>
<text text-anchor="middle" x="112" y="-559.65" font-family="Helvetica,sans-Serif" font-size="13.00">simon_output_us_topology.txt</text>
</g>
<!-- simon_simulator&#45;&gt;simon_output -->
<g id="edge2" class="edge">
<title>simon_simulator&#45;&gt;simon_output</title>
<path fill="none" stroke="black" d="M131.71,-661.61C127.91,-644.53 122.32,-619.42 118.07,-600.28"/>
<polygon fill="black" stroke="black" points="116.6,-593.68 121.19,-599.83 117.09,-595.9 118.12,-600.51 118.12,-600.51 118.12,-600.51 117.09,-595.9 115.04,-601.19 116.6,-593.68"/>
</g>
<!-- nparc_cluster -->
<g id="node12" class="node">
<title>nparc_cluster</title>
<polygon fill="#e0e0e0" stroke="black" points="337.2,-482.05 250.8,-482.05 250.8,-446.05 337.2,-446.05 337.2,-482.05"/>
<text text-anchor="middle" x="294" y="-459.02" font-family="Helvetica,sans-Serif" font-size="12.00">nparc_cluster</text>
</g>
<!-- simon_simulator&#45;&gt;nparc_cluster -->
<g id="edge9" class="edge">
<title>simon_simulator:s&#45;&gt;nparc_cluster:n</title>
<path fill="none" stroke="black" d="M136,-661.95C136,-610.42 194.6,-631.07 229,-592.7 265.22,-552.31 291.34,-540.25 293.81,-490.09"/>
<polygon fill="black" stroke="black" points="293.97,-483.27 296.95,-490.34 293.92,-485.55 293.8,-490.27 293.8,-490.27 293.8,-490.27 293.92,-485.55 290.66,-490.19 293.97,-483.27"/>
<text text-anchor="middle" x="342.51" y="-573.75" font-family="Helvetica,sans-Serif" font-size="10.00">Simon Output</text>
<text text-anchor="middle" x="342.51" y="-562.5" font-family="Helvetica,sans-Serif" font-size="10.00">(simon_output_us_topology.txt)</text>
</g>
<!-- input_parser -->
<g id="node4" class="node">
<title>input_parser</title>
<polygon fill="#cce0ff" stroke="black" points="580.2,-811.75 475.8,-811.75 475.8,-771.85 580.2,-771.85 580.2,-811.75"/>
<text text-anchor="middle" x="528" y="-793.15" font-family="Helvetica,sans-Serif" font-size="12.00">2a. Input Parser</text>
<text text-anchor="middle" x="528" y="-780.4" font-family="Helvetica,sans-Serif" font-size="12.00">(input_parser.py)</text>
</g>
<!-- parsed_data -->
<g id="node7" class="node">
<title>parsed_data</title>
<polygon fill="#cce0ff" stroke="none" points="589.45,-699.9 468.55,-699.9 468.55,-663.9 589.45,-663.9 589.45,-699.9"/>
<text text-anchor="middle" x="529" y="-676.3" font-family="Helvetica,sans-Serif" font-size="13.00">Parsed Path Data</text>
</g>
<!-- input_parser&#45;&gt;parsed_data -->
<g id="edge3" class="edge">
<title>input_parser&#45;&gt;parsed_data</title>
<path fill="none" stroke="black" d="M528.18,-771.51C528.34,-753.77 528.59,-727.35 528.77,-707.98"/>
<polygon fill="black" stroke="black" points="528.83,-701.11 531.92,-708.14 528.81,-703.39 528.77,-708.11 528.77,-708.11 528.77,-708.11 528.81,-703.39 525.62,-708.08 528.83,-701.11"/>
<text text-anchor="middle" x="567.53" y="-732.6" font-family="Helvetica,sans-Serif" font-size="10.00">Parsed Path Data</text>
</g>
<!-- path_analyzer -->
<g id="node5" class="node">
<title>path_analyzer</title>
<polygon fill="#cce0ff" stroke="black" points="585.7,-591.95 472.3,-591.95 472.3,-552.05 585.7,-552.05 585.7,-591.95"/>
<text text-anchor="middle" x="529" y="-573.35" font-family="Helvetica,sans-Serif" font-size="12.00">2b. Path Analyzer</text>
<text text-anchor="middle" x="529" y="-560.6" font-family="Helvetica,sans-Serif" font-size="12.00">(path_analyzer.py)</text>
</g>
<!-- analysis_data -->
<g id="node8" class="node">
<title>analysis_data</title>
<polygon fill="#cce0ff" stroke="none" points="585.7,-482.05 472.3,-482.05 472.3,-446.05 585.7,-446.05 585.7,-482.05"/>
<text text-anchor="middle" x="529" y="-458.45" font-family="Helvetica,sans-Serif" font-size="13.00">Analysis Results</text>
</g>
<!-- path_analyzer&#45;&gt;analysis_data -->
<g id="edge5" class="edge">
<title>path_analyzer&#45;&gt;analysis_data</title>
<path fill="none" stroke="black" d="M529,-551.57C529,-534.26 529,-508.85 529,-490.04"/>
<polygon fill="black" stroke="black" points="529,-483.13 532.15,-490.13 529,-485.41 529,-490.13 529,-490.13 529,-490.13 529,-485.41 525.85,-490.13 529,-483.13"/>
<text text-anchor="middle" x="566.12" y="-512.8" font-family="Helvetica,sans-Serif" font-size="10.00">Analysis Results</text>
</g>
<!-- output_formatter -->
<g id="node6" class="node">
<title>output_formatter</title>
<polygon fill="#cce0ff" stroke="black" points="591.95,-376.8 468.05,-376.8 468.05,-336.9 591.95,-336.9 591.95,-376.8"/>
<text text-anchor="middle" x="530" y="-358.2" font-family="Helvetica,sans-Serif" font-size="12.00">2c. Output Formatter</text>
<text text-anchor="middle" x="530" y="-345.45" font-family="Helvetica,sans-Serif" font-size="12.00">(output_formatter.py)</text>
</g>
<!-- csv_data_internal -->
<g id="node9" class="node">
<title>csv_data_internal</title>
<polygon fill="#cce0ff" stroke="none" points="606.45,-267.65 467.55,-267.65 467.55,-231.65 606.45,-231.65 606.45,-267.65"/>
<text text-anchor="middle" x="537" y="-244.05" font-family="Helvetica,sans-Serif" font-size="13.00">Formatted CSV Data</text>
</g>
<!-- output_formatter&#45;&gt;csv_data_internal -->
<g id="edge7" class="edge">
<title>output_formatter&#45;&gt;csv_data_internal</title>
<path fill="none" stroke="black" d="M531.28,-336.55C532.43,-319.37 534.11,-294.14 535.35,-275.46"/>
<polygon fill="black" stroke="black" points="535.8,-268.61 538.48,-275.81 535.65,-270.89 535.34,-275.6 535.34,-275.6 535.34,-275.6 535.65,-270.89 532.2,-275.39 535.8,-268.61"/>
<text text-anchor="middle" x="580.04" y="-298.4" font-family="Helvetica,sans-Serif" font-size="10.00">Formatted CSV Data</text>
</g>
<!-- csv_file_output -->
<g id="node10" class="node">
<title>csv_file_output</title>
<polygon fill="#ccffcc" stroke="black" points="840.7,-161.15 691.3,-161.15 691.3,-121.25 840.7,-121.25 840.7,-161.15"/>
<text text-anchor="middle" x="766" y="-142.55" font-family="Helvetica,sans-Serif" font-size="12.00">CSV Output File</text>
<text text-anchor="middle" x="766" y="-129.8" font-family="Helvetica,sans-Serif" font-size="12.00">path_analysis_output.csv</text>
</g>
<!-- output_formatter&#45;&gt;csv_file_output -->
<g id="edge10" class="edge">
<title>output_formatter:e&#45;&gt;csv_file_output:w</title>
<path fill="none" stroke="black" d="M592.95,-356.85C695.23,-356.85 591.16,-152.83 682.15,-141.67"/>
<polygon fill="black" stroke="black" points="689.08,-141.27 682.28,-144.82 686.81,-141.4 682.1,-141.68 682.1,-141.68 682.1,-141.68 686.81,-141.4 681.91,-138.53 689.08,-141.27"/>
<text text-anchor="middle" x="688.28" y="-245.77" font-family="Helvetica,sans-Serif" font-size="10.00">Formatted CSV Data</text>
</g>
<!-- parsed_data&#45;&gt;path_analyzer -->
<g id="edge4" class="edge">
<title>parsed_data&#45;&gt;path_analyzer</title>
<path fill="none" stroke="black" d="M529,-664.04C529,-647.03 529,-620.48 529,-600.44"/>
<polygon fill="black" stroke="black" points="529,-593.51 532.15,-600.51 529,-595.79 529,-600.51 529,-600.51 529,-600.51 529,-595.79 525.85,-600.51 529,-593.51"/>
<text text-anchor="middle" x="556.38" y="-623.45" font-family="Helvetica,sans-Serif" font-size="10.00">Parsed Data</text>
</g>
<!-- analysis_data&#45;&gt;output_formatter -->
<g id="edge6" class="edge">
<title>analysis_data&#45;&gt;output_formatter</title>
<path fill="none" stroke="black" d="M529.16,-446.15C529.32,-429.76 529.56,-404.6 529.74,-385.33"/>
<polygon fill="black" stroke="black" points="529.8,-378.43 532.89,-385.46 529.78,-380.71 529.74,-385.43 529.74,-385.43 529.74,-385.43 529.78,-380.71 526.59,-385.4 529.8,-378.43"/>
<text text-anchor="middle" x="560.28" y="-407.55" font-family="Helvetica,sans-Serif" font-size="10.00">Analysis Data</text>
</g>
<!-- analysis_results_label -->
<g id="node11" class="node">
<title>analysis_results_label</title>
<polygon fill="#e0e0e0" stroke="none" points="822.7,-52 709.3,-52 709.3,-16 822.7,-16 822.7,-52"/>
<text text-anchor="middle" x="766" y="-28.4" font-family="Helvetica,sans-Serif" font-size="13.00">Analysis Results</text>
</g>
<!-- csv_file_output&#45;&gt;analysis_results_label -->
<g id="edge8" class="edge">
<title>csv_file_output&#45;&gt;analysis_results_label</title>
<path fill="none" stroke="black" stroke-dasharray="5,2" d="M766,-120.9C766,-103.72 766,-78.49 766,-59.81"/>
<polygon fill="black" stroke="black" points="766,-52.96 769.15,-59.96 766,-55.25 766,-59.96 766,-59.96 766,-59.96 766,-55.25 762.85,-59.96 766,-52.96"/>
<text text-anchor="middle" x="785.5" y="-82.75" font-family="Helvetica,sans-Serif" font-size="10.00">Contains</text>
</g>
</g>
</svg>
